# Rhino

mtllib couch.mtl
g Default
usemtl diffuse_0
v -29.928020477294922 -23.196496963500977 0
v -29.928020477294922 -23.196496963500977 15
v 30.071979522705078 -23.196496963500977 0
v 30.071979522705078 -23.196496963500977 15
v 30.071979522705078 16.803503036499023 0
v 30.071979522705078 16.803503036499023 15
v -29.928020477294922 16.803503036499023 0
v -29.928020477294922 16.803503036499023 15
vt 0 0
vt 0 0.57894700765609741
vt 0.3095238208770752 0
vt 0.3095238208770752 0.57894700765609741
vt 0.3095238208770752 0
vt 0.3095238208770752 0.57894700765609741
vt 0.5 0
vt 0.5 0.57894700765609741
vt 0.5 0
vt 0.5 0.57894700765609741
vt 0.8095238208770752 0
vt 0.8095238208770752 0.57894700765609741
vt 0.8095238208770752 0
vt 0.8095238208770752 0.57894700765609741
vt 1 0
vt 1 0.57894700765609741
vt 0 1
vt 0.30000001192092896 1
vt 0.30000001192092896 0.57894760370254517
vt 0 0.57894760370254517
vt 0.69999998807907104 0.57894760370254517
vt 1 0.57894760370254517
vt 1 1
vt 0.69999998807907104 1
vn 0 -1 0
vn 0 -1 0
vn 0 -1 0
vn 0 -1 0
vn 1 0 0
vn 1 0 0
vn 1 0 0
vn 1 0 0
vn 0 1 0
vn 0 1 0
vn 0 1 0
vn 0 1 0
vn -1 0 0
vn -1 0 0
vn -1 0 0
vn -1 0 0
vn 0 0 -1
vn 0 0 -1
vn 0 0 -1
vn 0 0 -1
vn 0 0 1
vn 0 0 1
vn 0 0 1
vn 0 0 1
f 1/1/1 3/3/3 4/4/4 2/2/2
f 3/5/5 5/7/7 6/8/8 4/6/6
f 5/9/9 7/11/11 8/12/12 6/10/10
f 7/13/13 1/15/15 2/16/16 8/14/14
f 3/18/18 1/17/17 7/20/20
f 7/20/20 5/19/19 3/18/18
f 4/22/22 8/24/24 2/21/21
f 8/24/24 4/22/22 6/23/23
usemtl diffuse_0
v -39.928020477294922 -23.196496963500977 0
v -39.928020477294922 -23.196496963500977 30
v -29.928020477294922 -23.196496963500977 0
v -29.928020477294922 -23.196496963500977 30
v -29.928020477294922 -23.196496963500977 15
v -39.928020477294922 -23.196496963500977 15
v -29.928020477294922 16.803503036499023 0
v -29.928020477294922 16.803503036499023 30
v -29.928020477294922 -3.1964964866638184 0
v -29.928020477294922 -3.1964964866638184 30
v 30.071979522705078 16.803503036499023 0
v 30.071979522705078 16.803503036499023 30
v 0.071978636085987091 16.803503036499023 0
v 0.071978636085987091 16.803503036499023 30
v 30.071979522705078 -23.196496963500977 0
v 30.071979522705078 -23.196496963500977 30
v 30.071979522705078 -3.1964964866638184 0
v 30.071979522705078 -23.196496963500977 15
v 30.071979522705078 -3.1964964866638184 30
v 40.071979522705078 -23.196496963500977 0
v 40.071979522705078 -23.196496963500977 30
v 40.071979522705078 -23.196496963500977 15
v 40.071979522705078 26.803503036499023 0
v 40.071979522705078 26.803503036499023 30
v 40.071979522705078 1.8035036325454712 0
v 40.071979522705078 1.8035036325454712 30
v -39.928020477294922 26.803503036499023 0
v -39.928020477294922 26.803503036499023 30
v 0.071978636085987091 26.803503036499023 0
v 0.071978636085987091 26.803503036499023 30
v -39.928020477294922 1.8035036325454712 0
v -39.928020477294922 1.8035036325454712 30
vt 0.8125 0.09375
vt 0.625 0.09375
vt 0.8125 0.15625
vt 0.625 0.15625
vt 0.71875 0.15625
vt 0.71875 0.09375
vt 0.5 0.1875
vt 0.3125 0.1875
vt 0.5 0.43603515625
vt 0.3125 0.43603515625
vt 0.40625 0.1875
vt 0.5 0.311767578125
vt 0.3125 0.311767578125
vt 0.625 0.1875
vt 0.625 0.375
vt 0.99853515625 0.1875
vt 0.99853515625 0.375
vt 0.811767578125 0.1875
vt 0.811767578125 0.375
vt 0.1875 0.1875
vt 0 0.1875
vt 0.1875 0.43603515625
vt 0 0.43603515625
vt 0.1875 0.311767578125
vt 0.09375 0.43603515625
vt 0 0.311767578125
vt 0.8125 0
vt 0.625 0
vt 0.8125 0.0625
vt 0.625 0.0625
vt 0.71875 0
vt 0.71875 0.0625
vt 0.99853515625 0.46875
vt 0.8125 0.46875
vt 0.99853515625 0.78125
vt 0.8125 0.78125
vt 0.905517578125 0.46875
vt 0.99853515625 0.625
vt 0.8125 0.625
vt 0 0
vt 0 0.18603515625
vt 0.5 0
vt 0.5 0.18603515625
vt 0.25 0
vt 0.25 0.18603515625
vt 0.81103515625 0.46875
vt 0.625 0.46875
vt 0.81103515625 0.78125
vt 0.625 0.78125
vt 0.718017578125 0.78125
vt 0.81103515625 0.625
vt 0.625 0.625
vt 0.62353515625 0.4375
vt 0.3125 0.4375
vt 0.62353515625 0.93603515625
vt 0.3125 0.93603515625
vt 0.62353515625 0.49981689453125
vt 0.468017578125 0.93603515625
vt 0.3125 0.686767578125
vt 0.468017578125 0.4375
vt 0.49912109971046448 0.49981689453125
vt 0.37470701336860657 0.49981689453125
vt 0.37470701336860657 0.686767578125
vt 0.37470701336860657 0.87371826171875
vt 0.49912109971046448 0.87371826171875
vt 0.62353515625 0.87371826171875
vt 0.31103515625 0.4375
vt 0 0.4375
vt 0.31103515625 0.93603515625
vt 0 0.93603515625
vt 0.31103515625 0.49981689453125
vt 0.155517578125 0.93603515625
vt 0 0.686767578125
vt 0.155517578125 0.4375
vt 0.18662108480930328 0.49981689453125
vt 0.062207028269767761 0.49981689453125
vt 0.062207028269767761 0.686767578125
vt 0.062207028269767761 0.87371826171875
vt 0.18662108480930328 0.87371826171875
vt 0.31103515625 0.87371826171875
vn 0 -1 0
vn 0 -1 0
vn 0 -1 0
vn 0 -1 0
vn 0 -1 0
vn 0 -1 0
vn 1 0 0
vn 1 0 0
vn 1 0 0
vn 1 0 0
vn 1 0 0
vn 1 0 0
vn 1 0 0
vn 0 -1 0
vn 0 -1 0
vn 0 -1 0
vn 0 -1 0
vn 0 -1 0
vn 0 -1 0
vn -1 0 0
vn -1 0 0
vn -1 0 0
vn -1 0 0
vn -1 0 0
vn -1 0 0
vn -1 0 0
vn 0 -1 0
vn 0 -1 0
vn 0 -1 0
vn 0 -1 0
vn 0 -1 0
vn 0 -1 0
vn 1 0 0
vn 1 0 0
vn 1 0 0
vn 1 0 0
vn 1 0 0
vn 1 0 0
vn 1 0 0
vn 0 1 0
vn 0 1 0
vn 0 1 0
vn 0 1 0
vn 0 1 0
vn 0 1 0
vn -1 0 0
vn -1 0 0
vn -1 0 0
vn -1 0 0
vn -1 0 0
vn -1 0 0
vn -1 0 0
vn 0 0 -1
vn 0 0 -1
vn 0 0 -1
vn 0 0 -1
vn 0 0 -1
vn 0 0 -1
vn 0 0 -1
vn 0 0 -1
vn 0 0 -1
vn 0 0 -1
vn 0 0 -1
vn 0 0 -1
vn 0 0 -1
vn 0 0 -1
vn 0 0 1
vn 0 0 1
vn 0 0 1
vn 0 0 1
vn 0 0 1
vn 0 0 1
vn 0 0 1
vn 0 0 1
vn 0 0 1
vn 0 0 1
vn 0 0 1
vn 0 0 1
vn 0 0 1
vn 0 0 1
f 14/30/30 9/25/25 11/27/27 13/29/29
f 10/26/26 14/30/30 13/29/29 12/28/28
f 17/36/36 13/35/35 11/31/31
f 18/37/37 12/32/32 13/35/35
f 15/33/33 16/34/34 18/37/37 17/36/36
f 13/35/35 17/36/36 18/37/37
f 16/39/39 15/38/38 21/42/42 22/43/43
f 19/40/40 20/41/41 22/43/43 21/42/42
f 20/45/45 19/44/44 25/48/48 27/50/50
f 25/48/48 26/49/49 27/50/50
f 26/49/49 24/47/47 27/50/50
f 23/46/46 26/49/49 25/48/48
f 26/55/55 23/51/51 28/53/53 30/56/56
f 24/52/52 26/55/55 30/56/56 29/54/54
f 33/62/62 30/61/61 28/57/57
f 34/63/63 29/58/58 30/61/61
f 31/59/59 32/60/60 34/63/63 33/62/62
f 30/61/61 33/62/62 34/63/63
f 32/65/65 31/64/64 37/68/68 38/69/69
f 35/66/66 36/67/67 38/69/69 37/68/68
f 36/71/71 35/70/70 39/75/75 40/76/76
f 39/75/75 14/74/74 40/76/76
f 14/74/74 10/73/73 40/76/76
f 9/72/72 14/74/74 39/75/75
f 11/81/81 9/77/77 39/84/84 17/85/85
f 35/78/78 15/86/86 17/85/85 39/84/84
f 37/83/83 21/87/87 15/86/86 35/78/78
f 25/89/89 33/82/82 28/79/79 23/90/90
f 31/80/80 19/88/88 21/87/87 37/83/83
f 33/82/82 25/89/89 19/88/88 31/80/80
f 12/95/95 18/99/99 40/98/98 10/91/91
f 36/92/92 40/98/98 18/99/99 16/100/100
f 38/97/97 36/92/92 16/100/100 22/101/101
f 27/103/103 24/104/104 29/93/93 34/96/96
f 32/94/94 38/97/97 22/101/101 20/102/102
f 34/96/96 32/94/94 20/102/102 27/103/103
usemtl diffuse_0
v 30.071979522705078 12.160112380981445 12.670628547668457
v 30.071979522705078 3.4667801856994629 15
v -29.928020477294922 12.160112380981445 12.670628547668457
v -29.928020477294922 3.4667801856994629 15
v 10.071978569030762 12.160112380981445 12.670628547668457
v -9.9280214309692383 12.160112380981445 12.670628547668457
v -9.9280214309692383 3.4667801856994629 15
v 10.071978569030762 3.4667801856994629 15
v -29.928020477294922 17.739871978759766 33.494571685791016
v 30.071979522705078 17.739871978759766 33.494571685791016
v 30.071979522705078 14.949992179870605 23.082599639892578
v 10.071978569030762 17.739871978759766 33.494571685791016
v -9.9280214309692383 17.739871978759766 33.494571685791016
v -29.928020477294922 14.949992179870605 23.082599639892578
v -29.928020477294922 9.046539306640625 35.823944091796875
v -29.928020477294922 6.2566595077514648 25.411972045898438
v 30.071979522705078 9.046539306640625 35.823944091796875
v -9.9280214309692383 9.046539306640625 35.823944091796875
v 10.071978569030762 9.046539306640625 35.823944091796875
v 30.071979522705078 6.2566595077514648 25.411972045898438
vt 0.78208726644515991 0
vt 0.66816753149032593 0
vt 0.78208726644515991 0.76923078298568726
vt 0.66816753149032593 0.76923078298568726
vt 0.78208726644515991 0.25641027092933655
vt 0.78208726644515991 0.5128205418586731
vt 0.66816753149032593 0.5128205418586731
vt 0.66816753149032593 0.25641027092933655
vt 0.55131804943084717 0.23076923191547394
vt 0.27639144659042358 0.23076923191547394
vt 0.55131804943084717 0.99853515625
vt 0.27639144659042358 0.99853515625
vt 0.55131804943084717 0.48669120669364929
vt 0.55131804943084717 0.74261319637298584
vt 0.41385474801063538 0.99853515625
vt 0.27639144659042358 0.74261319637298584
vt 0.27639144659042358 0.48669120669364929
vt 0.41385474801063538 0.23076923191547394
vt 0.27639144659042358 0
vt 0 0
vt 0.27639144659042358 0.11391977220773697
vt 0 0.11391977220773697
vt 0.13819572329521179 0.11391977220773697
vt 0.13819572329521179 0
vt 0.27492660284042358 0.23076923191547394
vt 0 0.23076923191547394
vt 0.27492660284042358 0.99853515625
vt 0 0.99853515625
vt 0.27492660284042358 0.48669120669364929
vt 0.27492660284042358 0.74261319637298584
vt 0.13746330142021179 0.99853515625
vt 0 0.74261319637298584
vt 0 0.48669120669364929
vt 0.13746330142021179 0.23076923191547394
vt 0.27639144659042358 0.11538461595773697
vt 0 0.11538461595773697
vt 0.27639144659042358 0.22930438816547394
vt 0 0.22930438816547394
vt 0.13819572329521179 0.11538461595773697
vt 0.13819572329521179 0.22930438816547394
vt 0.66670268774032593 0
vt 0.55278289318084717 0
vt 0.66670268774032593 0.76923078298568726
vt 0.55278289318084717 0.76923078298568726
vt 0.66670268774032593 0.25641027092933655
vt 0.66670268774032593 0.5128205418586731
vt 0.55278289318084717 0.5128205418586731
vt 0.55278289318084717 0.25641027092933655
vn 0 -0.25881904363632202 -0.96592581272125244
vn 0 -0.25881904363632202 -0.96592581272125244
vn 0 -0.25881904363632202 -0.96592581272125244
vn 0 -0.25881904363632202 -0.96592581272125244
vn 0 -0.25881904363632202 -0.96592581272125244
vn 0 -0.25881904363632202 -0.96592581272125244
vn 0 -0.25881904363632202 -0.96592581272125244
vn 0 -0.25881904363632202 -0.96592581272125244
vn 0 0.96592581272125244 -0.25881904363632202
vn 0 0.96592581272125244 -0.25881904363632202
vn 0 0.96592581272125244 -0.25881904363632202
vn 0 0.96592581272125244 -0.25881904363632202
vn 0 0.96592581272125244 -0.25881904363632202
vn 0 0.96592581272125244 -0.25881904363632202
vn 0 0.96592581272125244 -0.25881904363632202
vn 0 0.96592581272125244 -0.25881904363632202
vn 0 0.96592581272125244 -0.25881904363632202
vn 0 0.96592581272125244 -0.25881904363632202
vn -1 0 0
vn -1 0 0
vn -1 0 0
vn -1 0 0
vn -1 0 0
vn -1 0 0
vn 0 -0.96592581272125244 0.25881904363632202
vn 0 -0.96592581272125244 0.25881904363632202
vn 0 -0.96592581272125244 0.25881904363632202
vn 0 -0.96592581272125244 0.25881904363632202
vn 0 -0.96592581272125244 0.25881904363632202
vn 0 -0.96592581272125244 0.25881904363632202
vn 0 -0.96592581272125244 0.25881904363632202
vn 0 -0.96592581272125244 0.25881904363632202
vn 0 -0.96592581272125244 0.25881904363632202
vn 0 -0.96592581272125244 0.25881904363632202
vn 1 0 0
vn 1 0 0
vn 1 0 0
vn 1 0 0
vn 1 0 0
vn 1 0 0
vn 0 0.25881904363632202 0.96592581272125244
vn 0 0.25881904363632202 0.96592581272125244
vn 0 0.25881904363632202 0.96592581272125244
vn 0 0.25881904363632202 0.96592581272125244
vn 0 0.25881904363632202 0.96592581272125244
vn 0 0.25881904363632202 0.96592581272125244
vn 0 0.25881904363632202 0.96592581272125244
vn 0 0.25881904363632202 0.96592581272125244
f 45/109/109 41/105/105 42/106/106 48/112/112
f 48/112/112 47/111/111 46/110/110 45/109/109
f 43/107/107 46/110/110 47/111/111 44/108/108
f 54/122/122 46/117/117 43/113/113
f 49/114/114 53/121/121 54/122/122
f 54/122/122 53/121/121 52/120/120
f 45/118/118 46/117/117 54/122/122
f 51/119/119 41/115/115 45/118/118
f 50/116/116 51/119/119 52/120/120
f 51/119/119 54/122/122 52/120/120
f 45/118/118 54/122/122 51/119/119
f 56/128/128 54/127/127 43/125/125 44/123/123
f 55/124/124 49/126/126 54/127/127 56/128/128
f 60/138/138 48/133/133 42/129/129
f 57/130/130 59/137/137 60/138/138
f 60/138/138 59/137/137 58/136/136 56/135/135
f 56/135/135 47/134/134 48/133/133 60/138/138
f 56/135/135 44/131/131 47/134/134
f 55/132/132 56/135/135 58/136/136
f 51/143/143 60/144/144 42/141/141 41/139/139
f 50/140/140 57/142/142 60/144/144 51/143/143
f 50/145/145 52/149/149 59/152/152 57/146/146
f 58/151/151 59/152/152 52/149/149 53/150/150
f 49/147/147 55/148/148 58/151/151 53/150/150
